<svg width="24" height="24" viewBox="0 0 24 24" fill="none" xmlns="http://www.w3.org/2000/svg">
<path d="M12 22C17.523 22 22 17.523 22 12C22 6.477 17.523 2 12 2C6.477 2 2 6.477 2 12C2 17.523 6.477 22 12 22Z" stroke="white" stroke-width="1.5" stroke-linejoin="round"/>
<path d="M12 8.99976C12.3978 8.99976 12.7794 8.84172 13.0607 8.56042C13.342 8.27911 13.5 7.89758 13.5 7.49976C13.5 7.10193 13.342 6.7204 13.0607 6.4391C12.7794 6.15779 12.3978 5.99976 12 5.99976C11.6022 5.99976 11.2206 6.15779 10.9393 6.4391C10.658 6.7204 10.5 7.10193 10.5 7.49976C10.5 7.89758 10.658 8.27911 10.9393 8.56042C11.2206 8.84172 11.6022 8.99976 12 8.99976ZM12 17.9998C12.3978 17.9998 12.7794 17.8417 13.0607 17.5604C13.342 17.2791 13.5 16.8976 13.5 16.4998C13.5 16.1019 13.342 15.7204 13.0607 15.4391C12.7794 15.1578 12.3978 14.9998 12 14.9998C11.6022 14.9998 11.2206 15.1578 10.9393 15.4391C10.658 15.7204 10.5 16.1019 10.5 16.4998C10.5 16.8976 10.658 17.2791 10.9393 17.5604C11.2206 17.8417 11.6022 17.9998 12 17.9998ZM7.5 13.4998C7.89782 13.4998 8.27936 13.3417 8.56066 13.0604C8.84196 12.7791 9 12.3976 9 11.9998C9 11.6019 8.84196 11.2204 8.56066 10.9391C8.27936 10.6578 7.89782 10.4998 7.5 10.4998C7.10218 10.4998 6.72064 10.6578 6.43934 10.9391C6.15804 11.2204 6 11.6019 6 11.9998C6 12.3976 6.15804 12.7791 6.43934 13.0604C6.72064 13.3417 7.10218 13.4998 7.5 13.4998V13.4998ZM16.5 13.4998C16.8978 13.4998 17.2794 13.3417 17.5607 13.0604C17.842 12.7791 18 12.3976 18 11.9998C18 11.6019 17.842 11.2204 17.5607 10.9391C17.2794 10.6578 16.8978 10.4998 16.5 10.4998C16.1022 10.4998 15.7206 10.6578 15.4393 10.9391C15.158 11.2204 15 11.6019 15 11.9998C15 12.3976 15.158 12.7791 15.4393 13.0604C15.7206 13.3417 16.1022 13.4998 16.5 13.4998Z" stroke="white" stroke-width="1.5" stroke-linejoin="round"/>
<path d="M12 22H22" stroke="white" stroke-width="1.5" stroke-linecap="round"/>
</svg>
